<?xml version="1.0" encoding="utf-8"?>
<!-- Generator: Adobe Illustrator 25.0.0, SVG Export Plug-In . SVG Version: 6.00 Build 0)  -->
<svg version="1.1" id="图层_1" xmlns="http://www.w3.org/2000/svg" xmlns:xlink="http://www.w3.org/1999/xlink" x="0px"
	y="0px" width="70" height="29" viewBox="0 0 70 29" style="enable-background:new 0 0 70 29;" xml:space="preserve">
	<style type="text/css">
		.st0 {
			fill: #FFFFFF;
		}

		.st1 {
			fill: #666666;
		}

		.st2 {
			opacity: 0.65;
			fill: url(#SVGID_1_);
			enable-background: new;
		}
	</style>
	<path class="st0" d="M45.11,15.15c-0.15,0.71-0.34,1.35-0.58,1.92c-0.24,0.58-0.56,1.07-0.95,1.48c-0.39,0.41-0.87,0.72-1.44,0.94
	c-0.57,0.22-1.27,0.32-2.08,0.32c-0.66,0-1.28-0.11-1.87-0.34c-0.59-0.23-1.11-0.54-1.56-0.92l1.26-2.41
	c0.29,0.24,0.61,0.44,0.96,0.62c0.35,0.18,0.76,0.27,1.23,0.27c0.34,0,0.64-0.05,0.88-0.14c0.25-0.09,0.47-0.24,0.65-0.44
	c0.18-0.2,0.34-0.46,0.47-0.78c0.13-0.32,0.24-0.71,0.34-1.17l1.97-9.4h2.85L45.11,15.15z" />
	<path class="st0" d="M47.05,19.52l3.03-14.41h8.26l-0.58,2.66h-5.42l-0.58,2.91h4.78l-0.57,2.62h-4.78l-0.73,3.54h5.84l-0.58,2.68
	L47.05,19.52L47.05,19.52z" />
	<path class="st0" d="M70,5.11l-0.58,2.72h-3.7l-2.46,11.68H60.4l2.46-11.68h-3.7l0.58-2.72H70L70,5.11z" />
	<path class="st0" d="M33.23,6.74c-1.26,3.78-5.59,15.43-17.48,20.18c0,0-10.77,4.27-14.73-4.64c-1.12-2.53-1.31-5.39-0.58-8.06
	c0.59-2.16,1.8-4.7,4.25-6.16c-0.13,0.17-6.61,9.07,1.53,14.61c0,0,1.82,1.21,4.71,0.98c0,0,0,0,0,0c2.78-0.22,6.54-1.76,10.65-6.97
	c0,0,6.01-7.74,7.09-14.08c0.11-0.64,0.9-0.9,1.37-0.45l1.2,1.13l1.44,1.36C33.27,5.18,33.48,6,33.23,6.74z" />
	<path class="st1" d="M6.98,8.29C6.34,9.06,10.75,3.74,15.04,0c0,0-6.11,4.18-13.64,4.74l4.93,1.3L6.98,8.29z" />
	<linearGradient id="SVGID_1_" gradientUnits="userSpaceOnUse" x1="28.5523" y1="28.7256" x2="14.7009" y2="4.2213"
		gradientTransform="matrix(1 0 0 -1 0 30)">
		<stop offset="9.757940e-04" style="stop-color:#000000;stop-opacity:0.4" />
		<stop offset="1" style="stop-color:#FFFFFF" />
	</linearGradient>
	<path class="st2" d="M31.25,3.28c-7.3,21.98-20.12,20.4-20.32,20.37c2.78-0.22,6.54-1.76,10.65-6.97c0,0,6.01-7.74,7.09-14.08
	c0.11-0.64,0.9-0.9,1.37-0.45L31.25,3.28z" />
	<path class="st0" d="M41.7,24.3c0.26,0,0.48,0.05,0.66,0.15c0.18,0.1,0.3,0.23,0.36,0.41c0.06,0.18,0.06,0.38,0,0.6
	c-0.06,0.23-0.18,0.43-0.34,0.6c-0.16,0.18-0.36,0.31-0.59,0.4s-0.48,0.15-0.74,0.15h-0.64l-0.38,1.34h-0.54l1.03-3.64H41.7z
	 M41.11,26.14c0.27,0,0.49-0.06,0.67-0.19c0.18-0.13,0.3-0.29,0.36-0.5c0.06-0.21,0.03-0.38-0.08-0.5c-0.11-0.13-0.3-0.19-0.56-0.19
	h-0.57l-0.39,1.38H41.11z" />
	<path class="st0" d="M43.02,27.95H42.5l1.07-3.79h0.52L43.02,27.95z" />
	<path class="st0" d="M46.22,25.58c0.14,0.18,0.16,0.44,0.07,0.79l-0.45,1.58h-0.45c0.04-0.15,0.06-0.25,0.06-0.32
	C45.22,27.88,44.93,28,44.57,28c-0.17,0-0.33-0.03-0.45-0.1c-0.13-0.06-0.22-0.16-0.27-0.27c-0.05-0.12-0.06-0.26-0.01-0.43
	c0.07-0.25,0.24-0.46,0.49-0.61c0.25-0.15,0.55-0.23,0.87-0.23c0.18,0,0.37,0.02,0.55,0.07l0-0.01c0.07-0.24,0.07-0.41,0.01-0.52
	c-0.06-0.11-0.19-0.17-0.38-0.17c-0.15,0-0.29,0.03-0.41,0.1c-0.12,0.07-0.23,0.16-0.34,0.28l-0.32-0.22
	c0.14-0.18,0.31-0.33,0.53-0.44c0.22-0.11,0.45-0.17,0.69-0.17C45.85,25.3,46.08,25.4,46.22,25.58z M45.64,26.83
	c-0.19-0.05-0.36-0.08-0.51-0.08c-0.2,0-0.37,0.04-0.5,0.12c-0.13,0.08-0.22,0.18-0.26,0.32c-0.03,0.12-0.02,0.22,0.05,0.29
	c0.07,0.07,0.18,0.11,0.33,0.11c0.18,0,0.36-0.05,0.52-0.16c0.16-0.11,0.27-0.25,0.32-0.44L45.64,26.83z" />
	<path class="st0" d="M48.11,27.84C47.93,27.95,47.72,28,47.48,28c-0.25,0-0.43-0.07-0.55-0.21s-0.13-0.38-0.03-0.73l0.36-1.27h-0.44
	l0.12-0.44h0.44l0.21-0.74h0.51l-0.21,0.74h0.77l-0.12,0.44h-0.77L47.43,27c-0.1,0.36-0.02,0.54,0.25,0.54
	c0.12,0,0.24-0.03,0.36-0.1L48.11,27.84z" />
	<path class="st0" d="M50.18,24.7c-0.09,0.09-0.17,0.24-0.23,0.46l-0.06,0.2h0.68l-0.12,0.43h-0.68l-0.61,2.15h-0.52l0.61-2.15h-0.45
	l0.12-0.43h0.45l0.06-0.22c0.1-0.36,0.26-0.62,0.48-0.79c0.22-0.17,0.46-0.26,0.72-0.26c0.12,0,0.23,0.02,0.31,0.05
	c0.09,0.03,0.15,0.08,0.2,0.13l-0.31,0.39c-0.08-0.07-0.18-0.1-0.3-0.1C50.39,24.57,50.27,24.61,50.18,24.7z" />
	<path class="st0" d="M50.74,25.95c0.18-0.21,0.38-0.36,0.61-0.48c0.23-0.11,0.46-0.17,0.69-0.17c0.23,0,0.42,0.06,0.58,0.17
	c0.16,0.11,0.27,0.27,0.33,0.48c0.06,0.21,0.05,0.44-0.02,0.7c-0.07,0.26-0.2,0.5-0.37,0.7c-0.18,0.21-0.38,0.36-0.6,0.48
	C51.73,27.94,51.5,28,51.28,28c-0.23,0-0.42-0.06-0.59-0.17c-0.16-0.11-0.28-0.27-0.34-0.48c-0.06-0.21-0.05-0.44,0.02-0.7
	C50.44,26.39,50.57,26.16,50.74,25.95z M50.94,27.3c0.09,0.16,0.25,0.24,0.46,0.24c0.21,0,0.41-0.08,0.6-0.24s0.31-0.37,0.39-0.65
	s0.07-0.49-0.03-0.65c-0.09-0.16-0.25-0.24-0.46-0.24c-0.21,0-0.41,0.08-0.59,0.24c-0.18,0.16-0.31,0.37-0.39,0.65
	C50.83,26.92,50.84,27.14,50.94,27.3z" />
	<path class="st0" d="M55.32,25.34c0.07,0.02,0.12,0.06,0.15,0.1l-0.31,0.4c-0.06-0.05-0.14-0.07-0.24-0.07
	c-0.19,0-0.37,0.08-0.53,0.24c-0.16,0.16-0.29,0.38-0.37,0.67l-0.36,1.28h-0.52l0.73-2.58h0.46c-0.04,0.16-0.07,0.3-0.09,0.42
	c0.12-0.16,0.25-0.28,0.4-0.36c0.14-0.08,0.29-0.12,0.44-0.12C55.17,25.3,55.25,25.32,55.32,25.34z" />
	<path class="st0" d="M59.2,25.57c0.11,0.18,0.11,0.44,0.01,0.78l-0.45,1.59h-0.5l0.4-1.42c0.07-0.23,0.08-0.42,0.03-0.55
	c-0.04-0.13-0.15-0.2-0.31-0.2c-0.16,0-0.32,0.07-0.47,0.2c-0.15,0.13-0.25,0.32-0.32,0.56l-0.4,1.41h-0.51l0.4-1.42
	c0.07-0.24,0.08-0.42,0.04-0.55c-0.04-0.13-0.14-0.2-0.31-0.2s-0.32,0.07-0.47,0.2c-0.15,0.13-0.25,0.32-0.32,0.56l-0.4,1.41h-0.51
	l0.73-2.58h0.45c-0.03,0.11-0.05,0.23-0.08,0.39c0.13-0.15,0.27-0.26,0.42-0.34c0.15-0.08,0.31-0.11,0.46-0.11
	c0.17,0,0.32,0.05,0.42,0.14c0.11,0.09,0.17,0.23,0.18,0.4c0.13-0.18,0.28-0.31,0.45-0.4c0.16-0.09,0.33-0.14,0.5-0.14
	C58.91,25.3,59.09,25.4,59.2,25.57z" />
</svg>